<svg xmlns="http://www.w3.org/2000/svg" xmlns:xlink="http://www.w3.org/1999/xlink"><symbol id="fb" viewBox="0 0 24 24">
<path d="M15.5378 5.18705H17.4V1.94345C17.0787 1.89925 15.9738 1.7998 14.687 1.7998C12.0021 1.7998 10.1629 3.48875 10.1629 6.59296V9.44981H7.20001V13.0759H10.1629V22.1998H13.7955V13.0768H16.6385L17.0898 9.45066H13.7946V6.95251C13.7955 5.90445 14.0776 5.18705 15.5378 5.18705Z"/>
</symbol><symbol id="insta" viewBox="0 0 24 24">
<path d="M12 8.3999C10.0149 8.3999 8.40002 10.0148 8.40002 11.9999C8.40002 13.985 10.0149 15.5999 12 15.5999C13.9852 15.5999 15.6 13.985 15.6 11.9999C15.6 10.0148 13.9852 8.3999 12 8.3999Z"/>
<path fill-rule="evenodd" clip-rule="evenodd" d="M2.40002 17.6106V6.3892C2.40002 4.18596 4.18608 2.3999 6.38932 2.3999H17.6107C19.814 2.3999 21.6 4.18596 21.6 6.3892V17.6106C21.6 19.8138 19.814 21.5999 17.6107 21.5999H6.38932C4.18608 21.5999 2.40002 19.8138 2.40002 17.6106ZM6.55995 9.96611C4.926 14.7018 9.29815 19.0739 14.0338 17.44C15.63 16.8894 16.8896 15.6299 17.4401 14.0338C19.074 9.29803 14.7019 4.92588 9.96612 6.55982C8.37002 7.11037 7.11049 8.37002 6.55995 9.96611ZM18 6.59993C18.6628 6.59993 19.2 6.06268 19.2 5.39993C19.2 4.73719 18.6628 4.19993 18 4.19993C17.3373 4.19993 16.8 4.73719 16.8 5.39993C16.8 6.06268 17.3373 6.59993 18 6.59993Z"/>
</symbol><symbol id="next" viewBox="0 0 11 18">
<path opacity="0.2" d="M1 16.5L9 9L0.999999 1.5" stroke="#484848" stroke-width="2" fill="none"/>
</symbol><symbol id="prev" viewBox="0 0 11 18">
<path opacity="0.2" d="M10 1.5L2 9L10 16.5" stroke="#484848" stroke-width="2" fill="none"/>
</symbol><symbol id="scroll" viewBox="0 0 76 132">
<path d="M38 76V131.5" stroke="white"/>
<rect x="31" y="25" width="14" height="24" rx="7.5" ry="7.5" stroke="white" stroke-width="2" fill="none"/>
<circle cx="38" cy="38" r="26.5" stroke="white" fill="none"/>
<circle cx="38" cy="38" r="37.5" stroke="white" stroke-dasharray="4 4" fill="none"/>
<line x1="38" y1="31" x2="38" y2="34" stroke="white" stroke-width="2" stroke-linecap="round"/>
</symbol><symbol id="tw" viewBox="0 0 24 24">
<path d="M23.0768 5.1309C22.2529 5.49228 21.3751 5.73182 20.4599 5.84812C21.4014 5.28597 22.12 4.4026 22.4578 3.33784C21.58 3.86122 20.6108 4.23091 19.5779 4.43722C18.7443 3.54969 17.5564 3 16.2604 3C13.7459 3 11.7217 5.0409 11.7217 7.54287C11.7217 7.90287 11.7521 8.24902 11.8269 8.57855C8.05108 8.3944 4.71004 6.58473 2.4656 3.82799C2.07376 4.50783 1.84392 5.28597 1.84392 6.12366C1.84392 7.69656 2.65391 9.09086 3.86128 9.89808C3.13159 9.88423 2.41576 9.67239 1.8093 9.3387C1.8093 9.35255 1.8093 9.37055 1.8093 9.38855C1.8093 11.5956 3.38359 13.4288 5.44803 13.8511C5.07834 13.9522 4.67542 14.0006 4.25727 14.0006C3.96651 14.0006 3.67297 13.984 3.39744 13.9231C3.98589 15.7217 5.65572 17.044 7.64124 17.0869C6.09602 18.2957 4.13405 19.024 2.01007 19.024C1.63761 19.024 1.28038 19.0074 0.923157 18.9617C2.93498 20.259 5.31926 20.9998 7.89047 20.9998C16.2479 20.9998 20.8171 14.0768 20.8171 8.07594C20.8171 7.87518 20.8102 7.68133 20.8005 7.48887C21.7019 6.84919 22.4592 6.05027 23.0768 5.1309Z"/>
</symbol></svg>